<svg xmlns="http://www.w3.org/2000/svg" viewBox="0 0 512 512"><title>clock-a</title><defs><style type="text/css">rect{transform-origin:50% 50%;}#minut{-webkit-animation:rotateAll 2s linear infinite;animation:rotateAll 2s linear infinite}#hour{-webkit-animation:rotateAll 24s linear infinite;animation:rotateAll 24s linear infinite}@-webkit-keyframes rotateAll{0%{-webkit-transform:rotate(0deg);transform:rotate(0deg)}100%{-webkit-transform:rotate(360deg);transform:rotate(360deg)}}@keyframes rotateAll{0%{-webkit-transform:rotate(0deg);transform:rotate(0deg)}100%{-webkit-transform:rotate(360deg);transform:rotate(360deg)}}</style></defs><path d="M457.66,134.69a21.33,21.33,0,0,0-9.91,28.49A211.08,211.08,0,0,1,468.87,256c0,117.63-95.7,213.33-213.33,213.33S42.2,373.6,42.2,256,137.91,42.63,255.54,42.63A210.8,210.8,0,0,1,388,88.66a21.33,21.33,0,1,0,26.54-33.4A256.42,256.42,0,0,0,255.54,0C114.39,0-.46,114.82-.46,256s114.85,256,256,256,256-114.85,256-256A253.29,253.29,0,0,0,486.15,144.6,21.31,21.31,0,0,0,457.66,134.69Z"/><rect x="247" y="85" width="42" height="192" rx="21" id="minut" /><rect x="247" y="235" width="149" height="42" rx="21" id="hour" /></svg>