<svg xmlns="http://www.w3.org/2000/svg" viewBox="0 0 100 16"><title>fe-logo</title><path d="M8.06.35V2.23H2.43V6H7.18V7.88H2.43v5.18H.05V.35Z"/><path d="M13.18,3.9A4.85,4.85,0,0,1,15,4.23a3.76,3.76,0,0,1,1.4.92,4,4,0,0,1,.9,1.46,5.52,5.52,0,0,1,.32,1.92,5.54,5.54,0,0,1-.32,1.93,4,4,0,0,1-.9,1.47,3.66,3.66,0,0,1-1.4.93,4.85,4.85,0,0,1-1.83.33,5,5,0,0,1-1.84-.33,3.78,3.78,0,0,1-1.41-.93A4.19,4.19,0,0,1,9,10.46a5.54,5.54,0,0,1-.32-1.93A5.52,5.52,0,0,1,9,6.61a4.14,4.14,0,0,1,.9-1.46,3.88,3.88,0,0,1,1.41-.92A5,5,0,0,1,13.18,3.9Zm0,7.62a1.91,1.91,0,0,0,1.67-.76,3.77,3.77,0,0,0,.54-2.21,3.83,3.83,0,0,0-.54-2.22,1.91,1.91,0,0,0-1.67-.77,2,2,0,0,0-1.69.77A3.83,3.83,0,0,0,11,8.55a3.79,3.79,0,0,0,.54,2.21A1.94,1.94,0,0,0,13.18,11.52Z"/><path d="M23.28,3.9a4.89,4.89,0,0,1,1.83.33,3.84,3.84,0,0,1,1.4.92,4,4,0,0,1,.9,1.46,5.52,5.52,0,0,1,.31,1.92,5.54,5.54,0,0,1-.31,1.93,4,4,0,0,1-.9,1.47,3.74,3.74,0,0,1-1.4.93,5.27,5.27,0,0,1-3.67,0A3.78,3.78,0,0,1,20,11.93a4,4,0,0,1-.9-1.47,5.31,5.31,0,0,1-.33-1.93,5.3,5.3,0,0,1,.33-1.92A4,4,0,0,1,20,5.15a3.88,3.88,0,0,1,1.41-.92A4.9,4.9,0,0,1,23.28,3.9Zm0,7.62a1.89,1.89,0,0,0,1.66-.76,3.77,3.77,0,0,0,.54-2.21,3.83,3.83,0,0,0-.54-2.22,1.89,1.89,0,0,0-1.66-.77,1.94,1.94,0,0,0-1.69.77,3.83,3.83,0,0,0-.54,2.22,3.79,3.79,0,0,0,.54,2.21A1.93,1.93,0,0,0,23.28,11.52Z"/><path d="M35.87,13.06a.55.55,0,0,1-.56-.4l-.17-.87a6.29,6.29,0,0,1-.59.57,4,4,0,0,1-.66.44,3.94,3.94,0,0,1-.77.29,4,4,0,0,1-.88.1A3,3,0,0,1,29.83,12a4.16,4.16,0,0,1-.69-1.45,7.3,7.3,0,0,1-.24-2,6.26,6.26,0,0,1,.27-1.87A4.5,4.5,0,0,1,30,5.22a3.69,3.69,0,0,1,1.23-1,3.45,3.45,0,0,1,1.59-.36,3.17,3.17,0,0,1,1.3.25,3.38,3.38,0,0,1,1,.64V0h2.17V13.06ZM33,11.47a2.21,2.21,0,0,0,1.15-.29,3.4,3.4,0,0,0,.89-.79V6.34a2,2,0,0,0-.8-.63,2.42,2.42,0,0,0-.94-.18,2.18,2.18,0,0,0-.89.18,1.71,1.71,0,0,0-.67.56,2.61,2.61,0,0,0-.43,1,5.38,5.38,0,0,0-.15,1.36,5.79,5.79,0,0,0,.13,1.34,2.51,2.51,0,0,0,.36.89,1.38,1.38,0,0,0,.58.5A1.93,1.93,0,0,0,33,11.47Z"/><path d="M47.78.35V2.23H42.15V5.76h4.44V7.57H42.15v3.6h5.63v1.89h-8V.35Z"/><path d="M52,8.41,49,4h2.09a.68.68,0,0,1,.35.07.58.58,0,0,1,.2.21l1.89,3c0-.1.07-.2.11-.3a2.19,2.19,0,0,1,.16-.3l1.52-2.37a.79.79,0,0,1,.22-.25A.51.51,0,0,1,55.81,4h2l-3,4.27,3.09,4.75H55.84a.52.52,0,0,1-.38-.13,1.12,1.12,0,0,1-.25-.28L53.3,9.52a1.66,1.66,0,0,1-.22.52l-1.69,2.61a1.49,1.49,0,0,1-.23.28.57.57,0,0,1-.36.13H48.86Z"/><path d="M59.41,16V4h1.32a.61.61,0,0,1,.36.1.44.44,0,0,1,.2.3l.17.83a4.67,4.67,0,0,1,1.25-1,3.42,3.42,0,0,1,1.66-.39,3,3,0,0,1,1.35.31,3,3,0,0,1,1,.89,4.19,4.19,0,0,1,.69,1.44,7.38,7.38,0,0,1,.24,2,6.21,6.21,0,0,1-.27,1.87,4.5,4.5,0,0,1-.78,1.49,3.42,3.42,0,0,1-1.22,1,3.53,3.53,0,0,1-1.61.36A3.31,3.31,0,0,1,62.53,13a3.09,3.09,0,0,1-1-.65V16ZM63.62,5.59a2.2,2.2,0,0,0-1.15.28,3.2,3.2,0,0,0-.89.81v4a2.06,2.06,0,0,0,.8.64,2.42,2.42,0,0,0,.94.18,2.18,2.18,0,0,0,.89-.19,1.71,1.71,0,0,0,.67-.56,2.69,2.69,0,0,0,.43-.95,5.49,5.49,0,0,0,.15-1.36,5.67,5.67,0,0,0-.13-1.34A2.43,2.43,0,0,0,65,6.25a1.38,1.38,0,0,0-.58-.5A1.71,1.71,0,0,0,63.62,5.59Z"/><path d="M69.45,13.06V4h1.27a.7.7,0,0,1,.47.12.75.75,0,0,1,.17.43l.14,1.09a4.24,4.24,0,0,1,1.13-1.32,2.4,2.4,0,0,1,1.46-.49,1.9,1.9,0,0,1,1.1.31l-.28,1.63A.29.29,0,0,1,74.8,6a.36.36,0,0,1-.24.07A1.48,1.48,0,0,1,74.2,6,2.35,2.35,0,0,0,73.6,6a1.82,1.82,0,0,0-1.16.38,2.77,2.77,0,0,0-.82,1.09v5.62Z"/><path d="M80.46,3.9A4.42,4.42,0,0,1,82,4.17a3.63,3.63,0,0,1,1.23.8,3.59,3.59,0,0,1,.81,1.28A5,5,0,0,1,84.36,8c0,.16,0,.3,0,.41a.73.73,0,0,1-.08.25.29.29,0,0,1-.16.13.55.55,0,0,1-.24,0H78.29a3.09,3.09,0,0,0,.74,2,2.36,2.36,0,0,0,1.73.65,3.09,3.09,0,0,0,.91-.12,4.09,4.09,0,0,0,.66-.28c.19-.09.36-.19.5-.27a.9.9,0,0,1,.42-.12.52.52,0,0,1,.23,0,.8.8,0,0,1,.17.15l.63.79a3.63,3.63,0,0,1-.81.71,5,5,0,0,1-.93.46,5.82,5.82,0,0,1-1,.24,8.22,8.22,0,0,1-1,.07,5,5,0,0,1-1.75-.31,4,4,0,0,1-1.4-.93,4.26,4.26,0,0,1-.94-1.51,5.78,5.78,0,0,1-.34-2.08,5.21,5.21,0,0,1,.29-1.74,4.21,4.21,0,0,1,.86-1.41,4,4,0,0,1,1.36-1A4.58,4.58,0,0,1,80.46,3.9Zm0,1.56A2,2,0,0,0,79,6a2.66,2.66,0,0,0-.69,1.52h4.08a2.56,2.56,0,0,0-.12-.79,1.69,1.69,0,0,0-.94-1.1A2.08,2.08,0,0,0,80.5,5.46Z"/><path d="M91.58,5.8a.72.72,0,0,1-.18.2.62.62,0,0,1-.25,0A.88.88,0,0,1,90.81,6l-.42-.2a2.79,2.79,0,0,0-.54-.2,2.5,2.5,0,0,0-.71-.09,1.6,1.6,0,0,0-1,.28.82.82,0,0,0-.37.71A.65.65,0,0,0,88,7a1.48,1.48,0,0,0,.5.35,4.8,4.8,0,0,0,.71.27l.8.26a7.18,7.18,0,0,1,.81.32,2.63,2.63,0,0,1,.71.46,2,2,0,0,1,.69,1.59,3,3,0,0,1-.24,1.2,2.7,2.7,0,0,1-.69.95,3.24,3.24,0,0,1-1.13.62,4.84,4.84,0,0,1-1.54.23,4.53,4.53,0,0,1-.91-.09,4.62,4.62,0,0,1-.85-.23,4.85,4.85,0,0,1-.76-.35,3.68,3.68,0,0,1-.61-.44l.5-.83a.6.6,0,0,1,.23-.22A.58.58,0,0,1,86.5,11a.65.65,0,0,1,.38.11l.42.25a4.28,4.28,0,0,0,.56.24,2.31,2.31,0,0,0,.81.12,1.93,1.93,0,0,0,.67-.1,1.37,1.37,0,0,0,.45-.24,1,1,0,0,0,.27-.34,1.19,1.19,0,0,0,.08-.41.71.71,0,0,0-.19-.52,1.59,1.59,0,0,0-.5-.35,5.27,5.27,0,0,0-.71-.27l-.82-.26a6.38,6.38,0,0,1-.82-.33,2.61,2.61,0,0,1-.71-.48,2.17,2.17,0,0,1-.5-.71,2.58,2.58,0,0,1-.19-1,2.67,2.67,0,0,1,.22-1.05,2.43,2.43,0,0,1,.65-.88,3,3,0,0,1,1.06-.59,4.81,4.81,0,0,1,3.17.08A3.65,3.65,0,0,1,92.07,5Z"/><path d="M99.37,5.8a.61.61,0,0,1-.19.2.58.58,0,0,1-.25,0A.88.88,0,0,1,98.6,6l-.42-.2a3.39,3.39,0,0,0-.54-.2,2.53,2.53,0,0,0-.72-.09,1.64,1.64,0,0,0-1,.28.85.85,0,0,0-.37.71.69.69,0,0,0,.19.48,1.71,1.71,0,0,0,.5.35,5.27,5.27,0,0,0,.71.27l.81.26c.27.09.54.2.81.32a2.57,2.57,0,0,1,.7.46,2.09,2.09,0,0,1,.51.66,2.2,2.2,0,0,1,.18.93,3.17,3.17,0,0,1-.23,1.2,2.61,2.61,0,0,1-.7.95,3.15,3.15,0,0,1-1.13.62,4.8,4.8,0,0,1-1.54.23,4.6,4.6,0,0,1-.91-.09,4.84,4.84,0,0,1-.85-.23,5.87,5.87,0,0,1-.76-.35,4.15,4.15,0,0,1-.61-.44l.5-.83A.79.79,0,0,1,94,11a.59.59,0,0,1,.34-.08.67.67,0,0,1,.38.11l.42.25a3.61,3.61,0,0,0,.55.24,2.41,2.41,0,0,0,.82.12,1.87,1.87,0,0,0,.66-.1,1.43,1.43,0,0,0,.46-.24.84.84,0,0,0,.26-.34,1,1,0,0,0,.08-.41.75.75,0,0,0-.18-.52,1.64,1.64,0,0,0-.51-.35,4.41,4.41,0,0,0-.71-.27l-.81-.26a6.38,6.38,0,0,1-.82-.33,2.34,2.34,0,0,1-.71-.48,2,2,0,0,1-.5-.71,2.41,2.41,0,0,1-.19-1,2.5,2.5,0,0,1,.22-1.05,2.41,2.41,0,0,1,.64-.88,3.06,3.06,0,0,1,1.07-.59,4.79,4.79,0,0,1,3.16.08A3.69,3.69,0,0,1,99.86,5Z"/></svg>