<svg xmlns="http://www.w3.org/2000/svg">
	<symbol viewBox="0 0 512 512" id="arrow">
		<title>Arrow</title>
		<path d="M503.82,236.11,318.92,51.2a28.13,28.13,0,0,0-39.64,0L262.5,68a27.8,27.8,0,0,0-8.18,19.82,28.32,28.32,0,0,0,8.18,20L370.36,216H27.66A27.35,27.35,0,0,0,0,243.51v23.74C0,282.71,12.21,296,27.66,296H371.59L262.5,404.73a27.75,27.75,0,0,0,0,39.35l16.79,16.74a28.11,28.11,0,0,0,39.63,0l184.9-184.9a28.26,28.26,0,0,0,0-39.77Z"/>
	</symbol>
	<symbol viewBox="0 0 512 512" id="asian">
		<title>Asian</title>
		<path d="M481.52,252l-27.45,32.49a26.16,26.16,0,0,0-6.14-2.14c-24.81-36.91-28.05-47-58.74-62.4L504.45,97.34a26.6,26.6,0,0,0-38.79-36.4L339.24,194.87,297.38,171a87.88,87.88,0,0,0-93.78,3.83c-23.61,16.37-51.15,11-78.17,37.77S108.38,227.43,72,282.08a27.78,27.78,0,0,0-14.57,2.73L30.63,252A17.05,17.05,0,0,0,.28,263c0,15.09-1.11,20.38,3.58,26.43l46.72,59.68a221,221,0,0,0,79.79,120.28h-31a17.06,17.06,0,0,0-8.53,31.72C102.32,508,107.27,512,116,512H396.35c9,0,13.9-4.18,25.15-10.91A17.05,17.05,0,0,0,413,469.37H381.69a220.94,220.94,0,0,0,79.8-120l46.71-59.67c4.35-5.72,3.58-9.21,3.58-26.43A17,17,0,0,0,481.52,252ZM478.11,73a9.54,9.54,0,0,1,14,12.78L373.25,212l-18.16-9.12ZM137.87,224.45c23.45-23.19,49-17,75.88-35.81a70.67,70.67,0,0,1,75.19-3.15,1054.45,1054.45,0,0,0,97.53,52.17C405.82,247.3,412,259.4,427,281.82h-55.5a17.05,17.05,0,0,0-5.71-14.06l-15.94-15a19.78,19.78,0,0,0-23.53-2.13l-13.64,8.53a17,17,0,0,0-7.42,22.67H185.87A17.05,17.05,0,0,0,179.31,259l-13.73-8.52a19.61,19.61,0,0,0-23.44,2.13l-16.37,15a17.83,17.83,0,0,0-6.14,14.23H92.86c28.56-43.13,20.29-32.9,45-57.37Zm182.61,49.78a.88.88,0,0,1,.6-.76l13.64-8.53a3,3,0,0,1,3.15,0l17.05,15.52c0,1,.6.68-26.08.94Zm-183.8,6.14,17-15a2.8,2.8,0,0,1,3.07,0c15.43,9.29,14.49,8.52,14,9.63l-7.67,7.08c-24.47-.26-27,.68-26.43-1.71ZM17.33,278.84V263l28.47,34.1a27.22,27.22,0,0,0-1.87,16.46ZM401,493.76c-2.9,1.79,16.2,1.19-284.83,1.19-3,0-3.41-.68-16.36-8.53h313Zm-50-24.39H161.06a204.58,204.58,0,0,1-100.42-162,8.52,8.52,0,0,1,8.52-8.53H442.9a8.53,8.53,0,0,1,8.53,8.53A204.6,204.6,0,0,1,351,469.37ZM494.73,278.92,468,313a27.34,27.34,0,0,0-1.88-17l28.64-34.1Z"/><path d="M239,315.92H99.17a17.06,17.06,0,0,0-16.54,21.32,190,190,0,0,0,40.07,78.34,8.52,8.52,0,1,0,12.87-11.08A173.94,173.94,0,0,1,99.17,333H239a8.53,8.53,0,1,0,0-17.05Z"/><path d="M250.49,258.89a17.65,17.65,0,0,0,28.39-2.64l8.52-13.73a19.6,19.6,0,0,0-2.13-23.44l-15-16.37a17.64,17.64,0,0,0-28.39,2.9l-8.53,13.72a19.61,19.61,0,0,0,2.14,23.45Zm-3-30.95c9.37-15.34,8.52-14.49,9.63-14l15.34,16.71a2.8,2.8,0,0,1,0,3.07c-9,14.92-7.92,14-9.37,14l-15-17.05A2.81,2.81,0,0,1,247.51,227.94Z"/><path d="M119.63,40.65a64.87,64.87,0,0,0-17,43.73c0,17.05,13.3,34.1,27.11,44.76,11.34,8.52,18.5,17.47,18.33,24.21a17.65,17.65,0,0,0,33.59,8,71.52,71.52,0,0,0,6.22-30.09c0-15-13.64-28.47-25.15-37A34.63,34.63,0,0,1,147,68.69a35,35,0,0,1,2.65-11.5,17.56,17.56,0,0,0-30-16.54Zm33,67.17C163.87,116.35,171,125.3,171,131.27a53.56,53.56,0,0,1-4.69,23c-4.18,2,6.91-13.9-26.17-38.79-9.72-7.16-20.46-20-20.46-31.12a47.15,47.15,0,0,1,13.21-32.74h.6a53.61,53.61,0,0,0-3.5,17,50,50,0,0,0,22.51,39.13Z"/><path d="M334.46,151.22a89.2,89.2,0,0,0,6.82-35.55c0-17-15-33-27.62-43.22a44.27,44.27,0,0,1-18.33-32.4,47.68,47.68,0,0,1,3.33-14.75A18.76,18.76,0,0,0,266.09,7.48a78.93,78.93,0,0,0-18.58,51.16c0,19.77,14.49,40.15,29.83,52.59,8.53,7.25,21.66,19.61,21.32,31a18.75,18.75,0,0,0,35.8,8.95ZM288.09,98.28c-11.6-9.38-23.53-25.49-23.53-39.39A62.65,62.65,0,0,1,279.3,18.23a1.48,1.48,0,0,1,1-1,1.5,1.5,0,0,1,1.34.27,1.44,1.44,0,0,1,.76,2.05,73.35,73.35,0,0,0-3.92,20.2,60.11,60.11,0,0,0,24.47,45.95c13.38,10.75,21.31,22,21.31,29.93a70.77,70.77,0,0,1-5.45,28.73,1.29,1.29,0,0,1-1.71.94c-5.11-1.2,7.16-17.91-29-47.06Z"/>
	</symbol>
	<symbol viewBox="0 0 512 512" id="bbq">
		<title>BBQ</title>
		<path d="M503.39,210.69c0-.25.05-.49.05-.75,0-55.2-127.49-85-247.44-85S8.56,154.74,8.56,209.94c0,.1,0,.19,0,.28A192.12,192.12,0,0,0,57.78,339a184,184,0,0,0,26.93,24L43,443.07A25.52,25.52,0,0,0,53.89,477.5a25.16,25.16,0,0,0,11.74,2.88,25.59,25.59,0,0,0,22.72-13.75l41.16-78.79a312.49,312.49,0,0,0,100.87,21V486.4a25.6,25.6,0,1,0,51.2,0V408.81a316.39,316.39,0,0,0,96.8-19.39c1.3-.49,2.56-1.13,3.86-1.64L423.62,467a25.66,25.66,0,0,0,22.65,13.76,26.15,26.15,0,0,0,11.85-3,25.75,25.75,0,0,0,10.81-34.53L427,363.12A188.94,188.94,0,0,0,503.39,210.69ZM256,142c135.7,0,230.28,35.75,230.37,67.87,0,.15-.07.29-.07.44v.28C485,242.57,390.82,277.86,256,277.86c-135.76,0-230.38-35.79-230.38-67.92S120.24,142,256,142ZM73.22,458.73a8.51,8.51,0,1,1-15.07-7.89L99,372.56q7.22,4.38,14.94,8.24ZM264.51,486.4a8.54,8.54,0,0,1-17.07,0V375.47a8.54,8.54,0,1,1,17.07,0ZM453.8,451.18a8.49,8.49,0,0,1-3.48,11.45,8.32,8.32,0,0,1-11.6-3.56l-40.89-78.29c4.23-2.11,8.45-4.25,12.54-6.64a8.27,8.27,0,0,0,1-.66c.48-.29.92-.59,1.4-.88Zm-52-91.87c-.31.19-.62.4-.91.62a197.2,197.2,0,0,1-28.59,13.56,299.22,299.22,0,0,1-90.68,18.23V375.47a25.6,25.6,0,1,0-51.2,0v16.11c-70.63-4.14-124.5-25.5-159.85-63.94a172.4,172.4,0,0,1-41.09-81.88c41,32.14,135.9,49.17,226.56,49.17s185.57-17,226.55-49.17A168.79,168.79,0,0,1,401.76,359.31Z"/><path d="M66,230.15a8.51,8.51,0,0,0,8.26-2.25l42.67-42.67a8.53,8.53,0,1,0-12.06-12.06L62.21,215.83A8.53,8.53,0,0,0,66,230.15Z"/><path d="M94.09,241.16A8.53,8.53,0,0,0,108.41,245l68.26-68.27a8.53,8.53,0,1,0-12.06-12.07L96.34,232.9A8.52,8.52,0,0,0,94.09,241.16Z"/><path d="M136.76,249.7a8.53,8.53,0,0,0,14.31,3.8l85.34-85.33a8.53,8.53,0,1,0-12.07-12.07L139,241.43A8.54,8.54,0,0,0,136.76,249.7Z"/><path d="M179.42,258.23a8.53,8.53,0,0,0,14.32,3.8l93.87-93.86a8.53,8.53,0,1,0-12.07-12.07L181.67,250A8.56,8.56,0,0,0,179.42,258.23Z"/><path d="M230.62,258.23a8.53,8.53,0,0,0,14.32,3.8l85.33-85.33a8.53,8.53,0,1,0-12.06-12.07L232.87,250A8.56,8.56,0,0,0,230.62,258.23Z"/><path d="M281.82,258.23a8.53,8.53,0,0,0,14.32,3.8l76.8-76.8a8.53,8.53,0,0,0-12.07-12.06L284.07,250A8.56,8.56,0,0,0,281.82,258.23Z"/><path d="M341.56,249.7a8.53,8.53,0,0,0,14.31,3.8l68.27-68.27a8.53,8.53,0,0,0-12.07-12.06l-68.26,68.26A8.54,8.54,0,0,0,341.56,249.7Z"/><path d="M401.27,241.17a8.54,8.54,0,0,0,14.34,3.8l34.13-34.14a8.53,8.53,0,1,0-12.07-12.06L403.54,232.9A8.54,8.54,0,0,0,401.27,241.17Z"/><path d="M195.64,71.16a16.88,16.88,0,0,1,0,21.67l-3.42,4.1a8.53,8.53,0,0,0,13.08,10.95l3.43-4.1a33.93,33.93,0,0,0,.15-43.39l-.17-.21a16.88,16.88,0,0,1,0-21.67L229.2,14A8.53,8.53,0,0,0,216.11,3.06l-20.49,24.5a33.92,33.92,0,0,0-.15,43.4Z"/><path d="M246.84,71.16a16.88,16.88,0,0,1,0,21.67l-3.42,4.1a8.53,8.53,0,0,0,13.08,10.95l3.43-4.1a33.93,33.93,0,0,0,.15-43.39l-.17-.21a16.88,16.88,0,0,1,0-21.67L280.4,14A8.53,8.53,0,1,0,267.31,3.06l-20.49,24.5a33.92,33.92,0,0,0-.15,43.4Z"/><path d="M298,71.16a16.88,16.88,0,0,1,0,21.67l-3.42,4.1a8.53,8.53,0,0,0,13.08,10.95l3.43-4.1a33.93,33.93,0,0,0,.15-43.39l-.17-.21a16.88,16.88,0,0,1,0-21.67L331.6,14A8.53,8.53,0,1,0,318.51,3.06L298,27.56a33.92,33.92,0,0,0-.15,43.4Z"/>
	</symbol>
	<symbol viewBox="0 0 512 512" id="burguer">
		<title>Burguer</title>
		<path d="M383.07,148.93a10,10,0,0,0-14.14,0l-20,20a10,10,0,0,0,14.14,14.14l20-20A10,10,0,0,0,383.07,148.93Z"/><path d="M143.07,148.93a10,10,0,0,0-14.14,0l-20,20a10,10,0,0,0,14.14,14.14l20-20A10,10,0,0,0,143.07,148.93Z"/><path d="M333.07,108.93a10,10,0,0,0-14.14,0l-20,20a10,10,0,0,0,14.14,14.14l20-20A10,10,0,0,0,333.07,108.93Z"/><path d="M213.07,108.93a10,10,0,0,0-14.14,0l-20,20a10,10,0,0,0,14.14,14.14l20-20A10,10,0,0,0,213.07,108.93Z"/><path d="M263.07,148.93a10,10,0,0,0-14.14,0l-20,20a10,10,0,0,0,14.14,14.14l20-20A10,10,0,0,0,263.07,148.93Z"/><path d="M512,356a30,30,0,0,0-30-30H472V293.77c.41-.36.83-.7,1.24-1.07,6.49-5.92,20.05-9.7,28.89-9.81a10,10,0,0,0-.13-20h-.13A76.45,76.45,0,0,0,472,270V243.74a30,30,0,0,0,18.53-31.43C478.74,117.5,397.69,46,302,46H210C114.31,46,33.26,117.5,21.47,212.3A29.93,29.93,0,0,0,40,243.74v25.77a74.84,74.84,0,0,0-30.13-6.62,10,10,0,0,0,.13,20h.13c8.94-.14,22.82,3.6,29.59,9.77l.28.24V326H30a30,30,0,0,0-4.92,59.59,28.39,28.39,0,0,0-.34,19.31A90,90,0,0,0,110,466H402a90,90,0,0,0,85.26-61.1,28.39,28.39,0,0,0-.34-19.31A30,30,0,0,0,512,356ZM41.31,214.77C51.87,130,124.39,66,210,66h92c85.61,0,158.13,64,168.69,148.78A10.1,10.1,0,0,1,461.33,226l-.2,0-.51,0H51.38A10.13,10.13,0,0,1,41.31,214.77Zm371.93,63.15c-22-20-51.5-20-73.48,0-14.35,13.08-32.17,13.08-46.52,0-22-20-51.5-20-73.48,0-14.35,13.08-32.17,13.08-46.52,0-22-20-51.5-20-73.48,0C87.6,289,73,290.78,60,283V246H452v37.55C439.24,290.65,425.05,288.69,413.24,277.92ZM452,305.24V326H60V304.94a50.41,50.41,0,0,0,16.5,2.81c12.9,0,25.78-5.05,36.74-15.05,14.35-13.09,32.17-13.09,46.52,0,22,20,51.5,20,73.48,0,14.35-13.09,32.17-13.09,46.52,0,22,20,51.5,20,73.48,0,14.35-13.09,32.17-13.09,46.52,0C415.06,306.65,434.27,310.94,452,305.24Zm16.32,93.24A70,70,0,0,1,402,446H110a70,70,0,0,1-66.32-47.52C41.61,392.36,46.9,386,53.46,386H458.54C465.12,386,470.38,392.39,468.32,398.48ZM482,366H30a10,10,0,0,1,0-20H482a10,10,0,0,1,0,20Z"/>
	</symbol>
	<symbol viewBox="0 0 512 512" id="clock">
		<title>Clock</title>
		<path d="M458.12,134.72a21.33,21.33,0,0,0-9.91,28.49A211.08,211.08,0,0,1,469.33,256c0,117.63-95.7,213.33-213.33,213.33S42.67,373.63,42.67,256,138.37,42.67,256,42.67a210.77,210.77,0,0,1,132.44,46A21.33,21.33,0,1,0,415,55.3,256.43,256.43,0,0,0,256,0C114.85,0,0,114.85,0,256S114.85,512,256,512,512,397.15,512,256a253.32,253.32,0,0,0-25.39-111.37A21.31,21.31,0,0,0,458.12,134.72Z"/><path d="M256,85.33a21.34,21.34,0,0,0-21.33,21.34V256A21.33,21.33,0,0,0,256,277.33H362.67a21.33,21.33,0,0,0,0-42.66H277.33v-128A21.34,21.34,0,0,0,256,85.33Z"/>
	</symbol>
	<symbol viewBox="0 0 512 512" id="close">
		<title>Close</title>
		<path d="M340.48,256,498.87,97.62a44.77,44.77,0,0,0,0-63.35L477.76,13.16a44.77,44.77,0,0,0-63.35,0L256,171.55,97.62,13.13a44.77,44.77,0,0,0-63.35,0L13.13,34.24a44.77,44.77,0,0,0,0,63.35L171.55,256,13.16,414.41a44.77,44.77,0,0,0,0,63.35l21.11,21.11a44.77,44.77,0,0,0,63.35,0L256,340.48,414.41,498.87a44.77,44.77,0,0,0,63.35,0l21.11-21.11a44.77,44.77,0,0,0,0-63.35Z"/>
	</symbol>
	<symbol viewBox="0 0 512 512" id="delivery">
		<title>Delivery</title>
		<path d="M218.53,438a10,10,0,1,0,7.07,2.93A10,10,0,0,0,218.53,438Z"/><path d="M417.71,270.1l-7.19-32.47a29.48,29.48,0,0,0,3.66.23h20a10,10,0,0,0,10-10v-40a10,10,0,0,0-10-10h-20a29.8,29.8,0,0,0-15.88,4.57l-3.9-17.62A25,25,0,0,0,416,140.08V122a25,25,0,0,0-25-25H332a25,25,0,0,0-23.3,16H285a26,26,0,1,0,0,52h51.47V185.2a10,10,0,1,0,20,0V165.05H374l25.1,113.41-47.5,84.62A29.37,29.37,0,0,1,326,378H207.41A84.13,84.13,0,0,0,124,304a83.21,83.21,0,0,0-51.85,17.91l-.06,0A83.53,83.53,0,0,0,40.56,378H20c1.31-71.89,60.19-130,132.39-130h54.93A10.17,10.17,0,0,1,217.5,258.2V348a10,10,0,0,0,10,10h69.21a59.65,59.65,0,0,0,59.64-59.57l0-33.23a10,10,0,0,0-10-10h0a10,10,0,0,0-10,10l0,33.23A39.63,39.63,0,0,1,296.71,338H237.5V258.2a30.06,30.06,0,0,0-8.84-21.31A33.94,33.94,0,0,0,226.41,189a19.72,19.72,0,0,0,2.12-8.9V74a20,20,0,0,0-20-20H102.47a20,20,0,0,0-20,20v58H40.09a10,10,0,0,0,0,20H82.47v28.07H10a10,10,0,0,0,0,20H76.53A33.93,33.93,0,0,0,88.4,242.16,152.61,152.61,0,0,0,0,380.46V388a10,10,0,0,0,10,10H66.2a10,10,0,0,0-.2,2,57.72,57.72,0,0,0,14.21,38H40.09a10,10,0,0,0,0,20h82.75c.39,0,.77,0,1.16,0a58.07,58.07,0,0,0,58-58,10,10,0,0,0-.2-2H326a49.42,49.42,0,0,0,39.69-20h12.66a57.83,57.83,0,0,0,9.85,60H258.53a10,10,0,1,0,0,20H430.84c.39,0,.77,0,1.16,0a58,58,0,0,0,53.64-80H502a10,10,0,0,0,10-10A98.07,98.07,0,0,0,417.71,270.1Zm-3.53-72.24h10v20h-10a10,10,0,1,1,0-20ZM166.38,74V96h-22V74Zm-63.91,0h21.89v32a10,10,0,0,0,10,10h42a10,10,0,0,0,10-10V74h22.15l0,106.07H102.47Zm5,154.07a14,14,0,0,1,0-28h96a14,14,0,0,1,0,28ZM162,400a38,38,0,0,1-37.61,38l-.39,0h-1.15A38,38,0,0,1,86,400a10,10,0,0,0-.2-2h76.4A10,10,0,0,0,162,400ZM60.74,378a63.61,63.61,0,0,1,23.71-40.36l.09-.07A63.37,63.37,0,0,1,124,324a64.14,64.14,0,0,1,63.25,54ZM279,139.05a6,6,0,0,1,6-6h22v7a24.72,24.72,0,0,0,.5,5H285A6,6,0,0,1,279,139.05Zm67.47,6H332a5,5,0,0,1-5-5V122a5,5,0,0,1,5-5h59a5,5,0,0,1,5,5v18.06a5,5,0,0,1-5,5ZM470,400a38,38,0,0,1-37.61,38l-.39,0h-1.15A38,38,0,0,1,401,378H463A38,38,0,0,1,470,400Zm-2.26-42H377.36l38.14-67.92A78.07,78.07,0,0,1,491.36,358Z"/><path d="M346.47,235.2a10,10,0,0,0,0-20h0a10,10,0,1,0,0,20Z"/>
	</symbol>
	<symbol viewBox="0 0 512 512" id="dessert">
		<title>Dessert</title>
		<path d="M417.27,339.52a41.17,41.17,0,0,0-30-58,40.84,40.84,0,0,0-18.08-64.17,41.1,41.1,0,0,0-30.63-68.71h-.22a41.42,41.42,0,0,0,5.11-8.51,49.43,49.43,0,0,0,41.19-67.37C403,49.39,412.9,16.26,412.9,0H396.38c0,12.42-7.42,38.09-21,57.79a49.32,49.32,0,0,0-79,7.28L252,47.32l-6.44,12.86a40.39,40.39,0,0,1-15,16.43L195.08,12.73A24.77,24.77,0,0,0,149.61,18a24.54,24.54,0,0,0,2.16,18.86l30.07,54.1a40.74,40.74,0,0,0-8.21,57.74h-.21a41.1,41.1,0,0,0-30.64,68.71,40.84,40.84,0,0,0-18.08,64.17,41.1,41.1,0,0,0-29.95,58l-13,12.95,28.27,127.21A41.06,41.06,0,0,0,150.37,512H361.62a41.07,41.07,0,0,0,40.32-32.34l28.27-127.2ZM338.58,57.81a33,33,0,0,1,8.18,65.05A56.67,56.67,0,0,0,312,71.41,32.69,32.69,0,0,1,338.58,57.81Zm-172.37-29a8.08,8.08,0,0,1-.72-6.29,8.16,8.16,0,0,1,3.94-4.94,8.48,8.48,0,0,1,11.21,3.2l34.14,61.45a42.76,42.76,0,0,1-5.45.37h-2.88a40.59,40.59,0,0,0-9.66,1.26Zm15.46,95.08A24.8,24.8,0,0,1,206.45,99.1h2.88A56.73,56.73,0,0,0,260,68.29l44.87,17.95a40.33,40.33,0,0,1,25.47,37.63,24.81,24.81,0,0,1-24.78,24.78H206.45A24.81,24.81,0,0,1,181.67,123.87Zm-8.25,41.29H338.58a24.78,24.78,0,0,1,0,49.55H173.42a24.78,24.78,0,1,1,0-49.55ZM156.9,231.23H355.09a24.77,24.77,0,1,1,0,49.54H156.9a24.77,24.77,0,1,1,0-49.54Zm-49.55,90.83a24.81,24.81,0,0,1,24.77-24.77H379.87a24.6,24.6,0,0,1,24.34,29.18l-16.09-16.08-33,33-33-33-33,33-33-33-33,33-33-33-33,33-33-33-16.09,16.08a24.87,24.87,0,0,1-.43-4.41ZM331.19,495.48H289.5l7.6-136.77,25-25,24.39,24.39ZM165.55,358.13l24.38-24.39,25,25,7.59,136.77H180.81Zm65.86.2L256,333.74l24.58,24.59L273,495.48H239ZM126.18,476.09,99.88,357.73l24-24L149,358.89l15.18,136.59H150.37A24.63,24.63,0,0,1,126.18,476.09Zm259.63,0a24.62,24.62,0,0,1-24.19,19.4H347.8L363,358.89l25.14-25.15,24,24Z"/>
	</symbol>
	<symbol viewBox="0 0 512 512" id="dish">
		<title>Dish</title>
		<path d="M362.56,172.56l-5.47-18a39.17,39.17,0,0,0-74.18,0l-5.47,18a101.32,101.32,0,0,0-2.83,46.93,44.17,44.17,0,0,0,22.73,30.77l-6.13,137.15a27,27,0,0,0,6.83,21,29.8,29.8,0,0,0,42.11,1.89c.65-.6,1.28-1.23,1.88-1.89A26.67,26.67,0,0,0,348.86,388l-6.17-137.75a44.14,44.14,0,0,0,22.7-30.75A101.32,101.32,0,0,0,362.56,172.56Zm-14,44a27,27,0,0,1-17.71,20.39,8.52,8.52,0,0,0-5.52,8.37l6.49,144a9.91,9.91,0,0,1-2.56,7.73,13.19,13.19,0,0,1-18.56,0,10.2,10.2,0,0,1-2.5-8.29l6.43-143.49a8.52,8.52,0,0,0-5.52-8.37,27,27,0,0,1-17.71-20.39,84.11,84.11,0,0,1,2.35-39l5.48-18a22.12,22.12,0,0,1,41.5,0l5.48,18A84.25,84.25,0,0,1,348.58,216.52Z"/><path d="M230.4,128a8.53,8.53,0,0,0-8.53,8.53V209.8l-23.1,23.1a8.52,8.52,0,0,0-2.5,6.46l7.46,149.33a11.65,11.65,0,0,1-3.22,8.7,12,12,0,0,1-17,.07l-.08-.07a11.65,11.65,0,0,1-3.22-8.7l7.51-149.33a8.51,8.51,0,0,0-2.49-6.46l-23.11-23.1V136.53a8.53,8.53,0,0,0-17.06,0v76.8a8.54,8.54,0,0,0,2.5,6l22.92,22.93-7.28,145.57a28.82,28.82,0,0,0,57.58,2.8,26.15,26.15,0,0,0,0-2.8L213.51,242.3l22.92-22.93a8.54,8.54,0,0,0,2.5-6v-76.8A8.53,8.53,0,0,0,230.4,128Z"/><path d="M179.2,128a8.53,8.53,0,0,0-8.53,8.53V204.8a8.53,8.53,0,0,0,17.06,0V136.53A8.53,8.53,0,0,0,179.2,128Z"/><path d="M204.8,128a8.53,8.53,0,0,0-8.53,8.53V204.8a8.53,8.53,0,0,0,17.06,0V136.53A8.53,8.53,0,0,0,204.8,128Z"/><path d="M256,0C114.62,0,0,114.62,0,256S114.62,512,256,512,512,397.38,512,256C511.84,114.68,397.32.16,256,0Zm0,494.93C124,494.93,17.07,388,17.07,256S124,17.07,256,17.07,494.93,124,494.93,256C494.78,387.9,387.9,494.78,256,494.93Z"/><path d="M283.7,416.18a8.53,8.53,0,0,0-9.32-7.66l-.33,0h0a157.3,157.3,0,0,1-36.16,0,8.54,8.54,0,0,0-2,17,173.57,173.57,0,0,0,40.11,0A8.54,8.54,0,0,0,283.7,416.18Z"/><path d="M386.56,146a8.53,8.53,0,0,0-12-1l0,0a8.53,8.53,0,0,0-1,12,153.6,153.6,0,0,1-9.06,207.76,8.53,8.53,0,1,0,12.05,12.09A170.66,170.66,0,0,0,386.56,146Z"/><path d="M198.82,112.79h0Z"/><path d="M296.25,90.1a172.21,172.21,0,0,0-100.44,6.17,8.53,8.53,0,1,0,6,16,155,155,0,0,1,90.45-5.55,8.53,8.53,0,1,0,4-16.59Z"/><path d="M147.19,364.37a153.58,153.58,0,0,1-15.43-198.72,8.53,8.53,0,0,0-13.64-10.26l-.15.21A170.68,170.68,0,0,0,135.1,376.46a8.55,8.55,0,0,0,12.09-12.09Z"/>
	</symbol>
	<symbol viewBox="0 0 512 512" id="pizza">
		<title>Pizza</title>
		<path d="M509,2.88A10,10,0,0,0,498.64.58L83.29,148.68A54.68,54.68,0,0,0,4.16,216.21,536.23,536.23,0,0,0,121,391,536.23,536.23,0,0,0,295.79,507.84,54.67,54.67,0,0,0,367,435.75L511.46,13.24A10,10,0,0,0,509,2.88ZM146.18,147.49l44-15.7a25.49,25.49,0,1,1-44,15.7Zm202.6,323.09a34.75,34.75,0,0,1-45.34,18.78c-128-53-227.76-152.76-280.8-280.8A34.7,34.7,0,0,1,86.76,182a447.14,447.14,0,0,0,97.43,145.81A447.14,447.14,0,0,0,330,425.24,34.74,34.74,0,0,1,348.78,470.58Zm88.84-303.25c-.9,0-1.81-.08-2.71-.19a25.49,25.49,0,1,1,18.44-45.77ZM460,101.92a45.48,45.48,0,1,0-29,84.84L411.1,244.88l-22.85-17.54a10,10,0,1,0-12.18,15.87l28.21,21.64L352.58,416a54.49,54.49,0,0,0-14.92-9.24c-106-43.9-188.52-126.44-232.42-232.42a54.59,54.59,0,0,0-5.61-10.26l26.78-9.54a45.56,45.56,0,0,0,39.26,39.78,47.21,47.21,0,0,0,6,.4,45.47,45.47,0,0,0,38.24-70L334.25,80.43,339,91.81a10,10,0,1,0,18.47-7.66l-4.32-10.44L485.83,26.39Z"/><path d="M108,268.28a1.7,1.7,0,0,0-.15-.22,9.86,9.86,0,1,0,.15.22Z"/><path d="M92.79,243.43a475.91,475.91,0,0,1-26-53.14,10,10,0,1,0-18.47,7.65,493,493,0,0,0,27.14,55.4,10,10,0,1,0,17.37-9.91Z"/><path d="M312.93,128a44.39,44.39,0,0,0-6-.4,45.49,45.49,0,0,0-5.89,90.6,46.07,46.07,0,0,0,6,.39A45.49,45.49,0,0,0,312.93,128Zm19.34,48.42A25.54,25.54,0,0,1,307,198.58a27.24,27.24,0,0,1-3.37-.22,25.49,25.49,0,1,1,28.6-22Z"/><path d="M310.33,252.37a46.07,46.07,0,0,0-6-.39,45.49,45.49,0,0,0-5.9,90.59,44.5,44.5,0,0,0,6,.4,45.5,45.5,0,0,0,5.9-90.6Zm19.33,48.43a25.5,25.5,0,1,1-21.94-28.6A25.53,25.53,0,0,1,329.66,300.8Z"/><path d="M244.37,211l-30.73-4A10,10,0,0,0,211,226.73l30.73,4A10,10,0,1,0,244.37,211Z"/><path d="M228.79,284.74l-2.71-20.62a10,10,0,1,0-19.83,2.61L209,287.35a10,10,0,0,0,9.9,8.7,9.76,9.76,0,0,0,1.32-.09A10,10,0,0,0,228.79,284.74Z"/>
	</symbol>
	<symbol viewBox="0 0 512 512" id="sandwich">
		<title>Sandwich</title>
		<path d="M492,307.72V263.36c12.38-5.51,20.4-19,17.09-33.13C487.76,138.73,350.11,106,256,106c-46.14,0-98.51,7.74-142.72,23.56A10,10,0,1,0,120,148.39c1.7-.61,3.44-1.21,5.19-1.8l13.13,36a30,30,0,0,0,56.38-20.52l-10.92-30c11.33-1.9,22.88-3.39,34.53-4.42l20,54.93a30,30,0,1,0,56.38-20.52l-12.85-35.3c12.51.77,25.08,2.09,37.58,3.94l18.89,51.88a30,30,0,1,0,56.38-20.52l-5.32-14.6c38.8,13.6,89.2,40,100.21,87.26,1.37,5.83-4,11.22-10,11.22H32.37c-6,0-11.34-5.41-10-11.23,4.27-18.32,14.81-35,31.32-49.56a10,10,0,0,0-13.23-15c-19.69,17.37-32.33,37.56-37.57,60C-.39,244.36,7.59,257.84,20,263.36v44.36A30,30,0,0,0,0,336a70.08,70.08,0,0,0,70,70H442a70.08,70.08,0,0,0,70-70A30,30,0,0,0,492,307.72ZM170,181.78a10,10,0,0,1-12.82-6l-12.76-35.05c6.36-1.74,12.9-3.34,19.54-4.79l12,33A10,10,0,0,1,170,181.78Zm100,0a10,10,0,0,1-12.82-6l-18-49.43c5.71-.24,11.35-.37,16.88-.37,1.47,0,2.89,0,4.3,0L275.92,169A10,10,0,0,1,270,181.78Zm100,0a10,10,0,0,1-12.82-6l-15-41.09c7.94,1.61,15.71,3.43,23.26,5.45L375.92,169A10,10,0,0,1,370,181.78ZM360.14,306l40-40H472v40ZM216,341.86,140.14,266H291.86ZM40,266h71.86l40,40H40Zm280.14,0h51.72L296,341.86,270.14,316ZM442,386H70a50.06,50.06,0,0,1-50-50,10,10,0,0,1,10-10H171.86l37.07,37.07a10,10,0,0,0,14.14,0L256,330.14l32.93,32.93a10,10,0,0,0,14.14,0L340.14,326H482a10,10,0,0,1,10,10A50.06,50.06,0,0,1,442,386Z"/><path d="M90,155a10,10,0,1,0-10,10A10,10,0,0,0,90,155Z"/>
	</symbol>
	<symbol viewBox="0 0 512 512" id="shop">
		<title>Shop</title>
		<path d="M181,436a45,45,0,1,0,45-45A45,45,0,0,0,181,436Zm45-15a15,15,0,1,1-15,15A15,15,0,0,1,226,421Z"/><path d="M332,436a45,45,0,1,0,45-45A45.05,45.05,0,0,0,332,436Zm45-15a15,15,0,1,1-15,15A15,15,0,0,1,377,421Z"/><path d="M497,91H117.32c-5.14-18-9.93-34.73-14-49.12A15,15,0,0,0,88.86,31H15a15,15,0,0,0,0,30H77.54c16.78,58.72,56,196,72.43,253.51l-5.68,11.36c-15,30,6.83,65.13,40.25,65.13H437a15,15,0,0,0,0-30H184.54a15,15,0,0,1-13.42-21.71l4.15-8.29H437a15,15,0,0,0,14.43-10.88l60-210A15,15,0,0,0,497,91ZM425.68,301H177.31c-8.17-28.61-31-108.66-51.42-180H477.11Z"/>
	</symbol>
	<symbol viewBox="0 0 512 512" id="star">
		<title>Star</title>
		<path d="M500.89,233a36.72,36.72,0,0,0-20.36-62.63l-124-18a16.18,16.18,0,0,1-12.2-8.87L288.93,31.19a36.72,36.72,0,0,0-65.85,0L167.64,143.53a16.19,16.19,0,0,1-12.21,8.87l-124,18A36.71,36.71,0,0,0,11.11,233l89.7,87.43a16.24,16.24,0,0,1,4.67,14.36L84.31,458.3A36.71,36.71,0,0,0,137.58,497l110.87-58.29a16.2,16.2,0,0,1,15.1,0L374.43,497a36.71,36.71,0,0,0,53.27-38.7L406.52,334.84a16.2,16.2,0,0,1,4.67-14.35ZM386.32,338.3l21.17,123.46A16.22,16.22,0,0,1,384,478.86l-110.88-58.3a36.68,36.68,0,0,0-34.18,0L128.05,478.86a16.22,16.22,0,0,1-23.53-17.1L125.69,338.3a36.7,36.7,0,0,0-10.56-32.5L25.42,218.36a16.22,16.22,0,0,1,9-27.66l124-18A36.69,36.69,0,0,0,186,152.6L241.45,40.27a16.22,16.22,0,0,1,29.09,0L326,152.6a36.67,36.67,0,0,0,27.64,20.09l124,18a16.22,16.22,0,0,1,9,27.66l-89.7,87.43A36.69,36.69,0,0,0,386.32,338.3Z"/>
	</symbol>
	<symbol viewBox="0 0 512 512" id="sushi">
		<title>Sushi</title>
		<path d="M43,337.27v19.1L8.88,384.43a23.88,23.88,0,0,0,30.45,36.75L43,418v13.13c-24.47,15.43-33.34,21-34.11,21.49a23.89,23.89,0,1,0,30,37.17l23.7-14.41c23.54,22.34,65,36.41,108.3,36.41,72.91,0,127.91-36.66,127.91-85.27v-93.8C510.19,204.85,501.5,209.88,502.35,209.2A26.52,26.52,0,0,0,504.22,170a26.26,26.26,0,0,0-34.87-2L298.81,273.06c0-56.62,0-53.72-1.2-60.71L502.26,47A26.4,26.4,0,1,0,468.58,6.34L264.7,174.15c-2.65-1.45-5.46-2.9-8.53-4.26V68.41C256.17,28.85,202.36.2,128.26.2S.36,28.93.36,68.41V273.06c0,25.59,15.52,48.35,42.63,64.21Zm64.89-158,18.59,17c-45.45,21.4-23.36,68.22,44.43,68.22a123.91,123.91,0,0,0,26.6-2.82l16,14.84C100,304.44-3.31,214.57,107.88,179.27Zm63,68.21c-31.72,0-51.16-12.45-51.16-21.31s19.44-21.32,51.16-21.32,51.16,12.36,51.16,21.32S202.62,247.48,170.9,247.48ZM28.58,408a6.82,6.82,0,0,1-8.53-10.4L43,378.46v17.91ZM60.05,259.51c30.52,31.72,98,49.88,162,32.48v28.74l-162,100.19ZM77.87,466.2l144.19-87.31V487.35c-52.27,16.37-113.66,4.52-144.19-21.15Zm203.88-39.65c0,22.26-16.54,41.61-42.63,54.06v-112L281.75,343ZM479.5,181.48a9.4,9.4,0,0,1,12.36,14.16C-6.64,497.41,26.88,478.23,23.21,477.72A6.91,6.91,0,0,1,19.46,466c480.33-297,459.18-283.78,460-284.55ZM239.12,310.16V286.37a118,118,0,0,0,42.63-26.86v24.3Zm-6.66-39.48L215.84,255.5c44.85-21.57,22.51-67.71-44.94-67.71a123.49,123.49,0,0,0-25.58,2.65l-17.06-15.86a235.46,235.46,0,0,1,42.64-3.84c62.16,0,110.85,22.43,110.85,51.16,0,17.91-19.1,37.09-49.29,48.78ZM479.75,19.47a9.47,9.47,0,0,1,11.77,14.84l-201.24,162A62.64,62.64,0,0,0,279,184.13ZM77.1,174.24V138.51c64.38,17.48,131.66-.94,162-32.49v57.39C192,148.48,120.5,149.85,77.1,174.24Zm162-105.83c0,28.14-47.41,59.69-110.86,59.69A177,177,0,0,1,85.63,123l16.11-14.75a123.87,123.87,0,0,0,26.52,2.81c68.22,0,89.28-46.81,44.43-68.22l18.59-17C220.36,35.24,239.12,50.68,239.12,68.41Zm-59.69,4.27C179.43,81.2,160,94,128.26,94S77.1,81.63,77.1,72.76s19.44-21.4,51.16-21.4,51.17,12.45,51.17,21.4ZM128.26,17.25a235.6,235.6,0,0,1,43.15,3.84L153.85,37a123.65,123.65,0,0,0-25.59-2.72c-68.21,0-89.1,46.47-44.93,67.7L66.7,117.19C36.51,105.51,17.41,86.32,17.41,68.41,17.41,39.76,66.1,17.25,128.26,17.25ZM17.41,106a118,118,0,0,0,42.64,26.86v53.63A48.45,48.45,0,0,0,43,221.9V317a54.84,54.84,0,0,1-25.58-43.92Z"/>
	</symbol>
	<symbol viewBox="0 0 512 512" id="user">
		<title>User</title>
		<path d="M437,331a255.08,255.08,0,0,0-97.28-61A147.94,147.94,0,0,0,404,148C404,66.39,337.61,0,256,0S108,66.39,108,148a147.94,147.94,0,0,0,64.26,122A256.41,256.41,0,0,0,0,512H40c0-119.1,96.9-216,216-216s216,96.9,216,216h40A254.33,254.33,0,0,0,437,331ZM256,256A108,108,0,1,1,364,148,108.12,108.12,0,0,1,256,256Z"/>
	</symbol>
</svg>